<?xml version="1.0" encoding="utf-8"?>
<!-- Generator: Adobe Illustrator 28.1.0, SVG Export Plug-In . SVG Version: 6.00 Build 0)  -->
<svg version="1.1" id="Layer_1" xmlns="http://www.w3.org/2000/svg" xmlns:xlink="http://www.w3.org/1999/xlink" x="0px" y="0px"
	 viewBox="0 0 800 800" style="enable-background:new 0 0 800 800;" xml:space="preserve">
<style type="text/css">
	.st0{fill:none;stroke:#000000;stroke-width:6;stroke-miterlimit:10;}
	.st1{fill:#ED2024;}
	.st2{fill:#59BA47;}
</style>
<g id="main">
	<rect x="127.7" y="110.6" class="st0" width="26" height="26"/>
	<rect x="179.7" y="110.6" class="st0" width="26" height="26"/>
	<rect x="231.8" y="110.6" class="st0" width="26" height="26"/>
	<rect x="283.8" y="110.6" class="st0" width="26" height="26"/>
	<rect x="335.9" y="110.6" class="st0" width="26" height="26"/>
	<rect x="387.9" y="110.6" class="st0" width="26" height="26"/>
	<rect x="439.9" y="110.6" class="st0" width="26" height="26"/>
	<rect x="492" y="110.6" class="st0" width="26" height="26"/>
	<rect x="544" y="110.6" class="st0" width="26" height="26"/>
	<rect x="596.1" y="110.6" class="st0" width="26" height="26"/>
	<rect x="648.1" y="110.6" class="st0" width="26" height="26"/>
	<rect x="127.7" y="160.8" class="st0" width="26" height="26"/>
	<rect x="179.7" y="160.8" class="st0" width="26" height="26"/>
	<rect x="231.8" y="160.8" class="st0" width="26" height="26"/>
	<rect x="283.8" y="160.8" class="st0" width="26" height="26"/>
	<rect x="335.9" y="160.8" class="st0" width="26" height="26"/>
	<rect x="387.9" y="160.8" class="st0" width="26" height="26"/>
	<rect x="648.1" y="160.8" class="st0" width="26" height="26"/>
	<rect x="127.7" y="211.1" class="st0" width="26" height="26"/>
	<rect x="179.7" y="211.1" class="st0" width="26" height="26"/>
	<rect x="231.8" y="211.1" class="st0" width="26" height="26"/>
	<rect x="283.8" y="211.1" class="st0" width="26" height="26"/>
	<rect x="335.9" y="211.1" class="st0" width="26" height="26"/>
	<rect x="387.9" y="211.1" class="st0" width="26" height="26"/>
	<rect x="648.1" y="211.1" class="st0" width="26" height="26"/>
	<rect x="127.7" y="261.4" class="st0" width="26" height="26"/>
	<rect x="179.7" y="261.4" class="st0" width="26" height="26"/>
	<rect x="231.8" y="261.4" class="st0" width="26" height="26"/>
	<rect x="283.8" y="261.4" class="st0" width="26" height="26"/>
	<rect x="335.9" y="261.4" class="st0" width="26" height="26"/>
	<rect x="387.9" y="261.4" class="st0" width="26" height="26"/>
	<rect x="648.1" y="261.4" class="st0" width="26" height="26"/>
	<rect x="127.7" y="311.6" class="st0" width="26" height="26"/>
	<rect x="179.7" y="311.6" class="st0" width="26" height="26"/>
	<rect x="231.8" y="311.6" class="st0" width="26" height="26"/>
	<rect x="283.8" y="311.6" class="st0" width="26" height="26"/>
	<rect x="335.9" y="311.6" class="st0" width="26" height="26"/>
	<rect x="387.9" y="311.6" class="st0" width="26" height="26"/>
	<g>
		<rect x="439.9" y="160.8" class="st1" width="26" height="26"/>
		<rect x="492" y="160.8" class="st1" width="26" height="26"/>
		<rect x="544" y="160.8" class="st1" width="26" height="26"/>
		<rect x="596.1" y="160.8" class="st1" width="26" height="26"/>
		<rect x="439.9" y="211.1" class="st1" width="26" height="26"/>
		<rect x="492" y="211.1" class="st1" width="26" height="26"/>
		<rect x="544" y="211.1" class="st1" width="26" height="26"/>
		<rect x="596.1" y="211.1" class="st1" width="26" height="26"/>
		<rect x="439.9" y="261.4" class="st1" width="26" height="26"/>
		<rect x="492" y="261.4" class="st1" width="26" height="26"/>
		<rect x="544" y="261.4" class="st1" width="26" height="26"/>
		<rect x="596.1" y="261.4" class="st1" width="26" height="26"/>
		<rect x="439.9" y="311.6" class="st1" width="26" height="26"/>
		<rect x="492" y="311.6" class="st1" width="26" height="26"/>
		<rect x="544" y="311.6" class="st1" width="26" height="26"/>
		<rect x="596.1" y="311.6" class="st1" width="26" height="26"/>
	</g>
	<rect x="648.1" y="311.6" class="st0" width="26" height="26"/>
	<rect x="127.7" y="361.9" class="st0" width="26" height="26"/>
	<rect x="179.7" y="361.9" class="st0" width="26" height="26"/>
	<rect x="231.8" y="361.9" class="st0" width="26" height="26"/>
	<rect x="283.8" y="361.9" class="st0" width="26" height="26"/>
	<rect x="335.9" y="361.9" class="st0" width="26" height="26"/>
	<rect x="387.9" y="361.9" class="st0" width="26" height="26"/>
	<rect x="439.9" y="361.9" class="st0" width="26" height="26"/>
	<rect x="492" y="361.9" class="st0" width="26" height="26"/>
	<rect x="544" y="361.9" class="st0" width="26" height="26"/>
	<rect x="596.1" y="361.9" class="st0" width="26" height="26"/>
	<rect x="648.1" y="361.9" class="st0" width="26" height="26"/>
	<rect x="127.7" y="412.1" class="st0" width="26" height="26"/>
	<rect x="544" y="412.1" class="st0" width="26" height="26"/>
	<rect x="596.1" y="412.1" class="st0" width="26" height="26"/>
	<rect x="648.1" y="412.1" class="st0" width="26" height="26"/>
	<rect x="127.7" y="462.4" class="st0" width="26" height="26"/>
	<rect x="544" y="462.4" class="st0" width="26" height="26"/>
	<rect x="596.1" y="462.4" class="st0" width="26" height="26"/>
	<rect x="648.1" y="462.4" class="st0" width="26" height="26"/>
	<rect x="127.7" y="512.6" class="st0" width="26" height="26"/>
	<rect x="544" y="512.6" class="st0" width="26" height="26"/>
	<rect x="596.1" y="512.6" class="st0" width="26" height="26"/>
	<rect x="648.1" y="512.6" class="st0" width="26" height="26"/>
	<rect x="127.7" y="562.9" class="st0" width="26" height="26"/>
	<rect x="179.7" y="562.9" class="st0" width="26" height="26"/>
	<rect x="231.8" y="562.9" class="st0" width="26" height="26"/>
	<rect x="283.8" y="562.9" class="st0" width="26" height="26"/>
	<rect x="335.9" y="562.9" class="st0" width="26" height="26"/>
	<rect x="387.9" y="562.9" class="st0" width="26" height="26"/>
	<rect x="439.9" y="562.9" class="st0" width="26" height="26"/>
	<rect x="492" y="562.9" class="st0" width="26" height="26"/>
	<rect x="544" y="562.9" class="st0" width="26" height="26"/>
	<rect x="596.1" y="562.9" class="st0" width="26" height="26"/>
	<rect x="648.1" y="562.9" class="st0" width="26" height="26"/>
	<rect x="127.7" y="613.1" class="st0" width="26" height="26"/>
	<rect x="179.7" y="613.1" class="st0" width="26" height="26"/>
	<rect x="231.8" y="613.1" class="st0" width="26" height="26"/>
	<rect x="283.8" y="613.1" class="st0" width="26" height="26"/>
	<rect x="335.9" y="613.1" class="st0" width="26" height="26"/>
	<rect x="387.9" y="613.1" class="st0" width="26" height="26"/>
	<rect x="439.9" y="613.1" class="st0" width="26" height="26"/>
	<rect x="492" y="613.1" class="st0" width="26" height="26"/>
	<rect x="544" y="613.1" class="st0" width="26" height="26"/>
	<rect x="596.1" y="613.1" class="st0" width="26" height="26"/>
	<rect x="648.1" y="613.1" class="st0" width="26" height="26"/>
	<rect x="127.7" y="663.4" class="st0" width="26" height="26"/>
	<rect x="179.7" y="663.4" class="st0" width="26" height="26"/>
	<rect x="231.8" y="663.4" class="st0" width="26" height="26"/>
	<rect x="283.8" y="663.4" class="st0" width="26" height="26"/>
	<rect x="335.9" y="663.4" class="st0" width="26" height="26"/>
	<rect x="387.9" y="663.4" class="st0" width="26" height="26"/>
	<rect x="439.9" y="663.4" class="st0" width="26" height="26"/>
	<rect x="492" y="663.4" class="st0" width="26" height="26"/>
	<rect x="544" y="663.4" class="st0" width="26" height="26"/>
	<rect x="596.1" y="663.4" class="st0" width="26" height="26"/>
	<rect x="648.1" y="663.4" class="st0" width="26" height="26"/>
</g>
<g id="green-rects">
	<rect x="179.7" y="412.1" class="st2" width="26" height="26"/>
	<rect x="231.8" y="412.1" class="st2" width="26" height="26"/>
	<rect x="283.8" y="412.1" class="st2" width="26" height="26"/>
	<rect x="335.9" y="412.1" class="st2" width="26" height="26"/>
	<rect x="387.9" y="412.1" class="st2" width="26" height="26"/>
	<rect x="439.9" y="412.1" class="st2" width="26" height="26"/>
	<rect x="492" y="412.1" class="st2" width="26" height="26"/>
	<rect x="179.7" y="462.4" class="st2" width="26" height="26"/>
	<rect x="231.8" y="462.4" class="st2" width="26" height="26"/>
	<rect x="283.8" y="462.4" class="st2" width="26" height="26"/>
	<rect x="335.9" y="462.4" class="st2" width="26" height="26"/>
	<rect x="387.9" y="462.4" class="st2" width="26" height="26"/>
	<rect x="439.9" y="462.4" class="st2" width="26" height="26"/>
	<rect x="492" y="462.4" class="st2" width="26" height="26"/>
	<rect x="179.7" y="512.6" class="st2" width="26" height="26"/>
	<rect x="231.8" y="512.6" class="st2" width="26" height="26"/>
	<rect x="283.8" y="512.6" class="st2" width="26" height="26"/>
	<rect x="335.9" y="512.6" class="st2" width="26" height="26"/>
	<rect x="387.9" y="512.6" class="st2" width="26" height="26"/>
	<rect x="439.9" y="512.6" class="st2" width="26" height="26"/>
	<rect x="492" y="512.6" class="st2" width="26" height="26"/>
</g>
</svg>
